<?xml version="1.0" standalone="no"?>
<!DOCTYPE svg PUBLIC "-//W3C//DTD SVG 20010904//EN"
 "http://www.w3.org/TR/2001/REC-SVG-20010904/DTD/svg10.dtd">
<svg version="1.0" xmlns="http://www.w3.org/2000/svg"
 width="447.000000pt" height="170.000000pt" viewBox="0 0 447.000000 170.000000"
 preserveAspectRatio="xMidYMid meet">

<g transform="translate(0.000000,170.000000) scale(0.100000,-0.100000)"
fill="#000000" stroke="none">
<path d="M1830 1594 c-30 -8 -73 -27 -95 -42 -49 -34 -112 -115 -126 -162 -6
-19 -20 -46 -31 -60 -20 -24 -20 -24 -35 -5 -8 11 -29 49 -46 83 -38 79 -106
142 -179 167 -40 14 -89 19 -203 21 -82 1 -166 0 -185 -4 -20 -4 48 -9 160
-12 192 -5 196 -5 255 -35 117 -59 138 -124 138 -430 0 -273 -11 -324 -85
-398 l-48 -48 71 -247 c72 -253 88 -298 89 -252 0 14 -5 53 -10 88 -6 35 -15
96 -20 135 -5 40 -12 83 -15 97 -18 86 -16 96 26 144 22 25 44 46 48 46 17 0
41 -88 41 -147 0 -215 59 -352 178 -410 53 -26 65 -28 182 -28 109 0 131 3
176 23 64 29 106 72 136 137 20 44 22 68 24 205 l2 155 -9 -135 c-12 -175 -24
-230 -59 -279 -52 -72 -167 -109 -303 -98 -146 12 -219 62 -254 174 -16 53
-18 106 -18 568 0 571 1 582 70 662 51 59 119 83 239 83 119 0 185 -19 235
-69 57 -57 72 -111 79 -286 6 -141 7 -145 13 -70 12 162 -17 293 -79 358 -73
77 -227 107 -362 71z"/>
<path d="M342 1583 c37 -2 100 -2 140 0 40 1 10 3 -67 3 -77 0 -110 -1 -73 -3z"/>
<path d="M2758 1583 c7 -3 16 -2 19 1 4 3 -2 6 -13 5 -11 0 -14 -3 -6 -6z"/>
<path d="M3138 1583 c12 -2 32 -2 45 0 12 2 2 4 -23 4 -25 0 -35 -2 -22 -4z"/>
<path d="M3503 1583 c15 -2 39 -2 55 0 15 2 2 4 -28 4 -30 0 -43 -2 -27 -4z"/>
<path d="M3918 1583 c68 -2 176 -2 240 0 64 1 9 3 -123 3 -132 0 -185 -2 -117
-3z"/>
<path d="M590 1534 c0 -17 76 -656 135 -1129 38 -304 39 -308 59 -189 13 80
30 92 47 32 28 -103 31 -111 40 -97 11 18 11 1360 0 1378 -11 17 -17 -22 -31
-194 -20 -255 -24 -282 -46 -332 -8 -18 -17 -33 -19 -33 -2 0 -10 -3 -19 -6
-9 -4 -20 4 -29 23 -17 32 -44 139 -53 204 -8 59 -72 351 -79 357 -3 3 -5 -3
-5 -14z"/>
<path d="M3633 860 c0 -382 3 -655 8 -605 10 122 9 1244 -1 1275 -4 14 -8
-288 -7 -670z"/>
<path d="M3416 1518 c-45 -211 -41 -1264 5 -1348 5 -8 9 297 9 678 0 380 -2
692 -5 692 -2 0 -7 -10 -9 -22z"/>
<path d="M3268 1524 c-11 -10 -10 -1326 1 -1342 17 -27 51 442 51 698 0 227
-36 661 -52 644z"/>
<path d="M3743 1475 c0 -33 2 -45 4 -27 2 18 2 45 0 60 -2 15 -4 0 -4 -33z"/>
<path d="M227 1495 c-16 -74 -41 -254 -82 -589 -50 -402 -66 -559 -64 -626 l1
-45 9 55 c23 160 149 1214 146 1224 -2 6 -7 -2 -10 -19z"/>
<path d="M2856 1239 c-4 -155 -5 -284 -2 -287 8 -7 205 -7 212 1 3 3 2 133 -2
289 -8 282 -13 294 -28 68 -18 -277 -24 -295 -85 -286 -20 3 -37 5 -38 6 -8 1
-24 138 -34 298 -6 105 -13 192 -14 192 -1 0 -5 -127 -9 -281z"/>
<path d="M1895 1421 c-11 -5 -29 -19 -40 -31 -19 -21 -20 -38 -23 -494 -2
-259 0 -495 3 -525 9 -74 37 -101 104 -101 59 0 95 14 110 44 16 31 20 328 4
313 -3 -4 -14 -60 -24 -125 -9 -64 -22 -129 -28 -145 -11 -28 -15 -29 -83 -11
-21 6 -35 67 -48 209 -13 144 -12 445 1 565 6 52 11 102 11 110 -1 33 21 112
35 125 16 16 41 19 61 7 15 -10 20 -29 38 -142 23 -150 25 -158 34 -135 13 31
11 248 -1 285 -17 49 -95 75 -154 51z"/>
<path d="M2636 1147 c-5 -163 -5 -415 0 -585 l9 -297 3 293 c1 160 1 424 0
585 l-3 292 -9 -288z"/>
<path d="M390 1383 c0 -31 -39 -515 -50 -613 -5 -52 -10 -98 -10 -102 0 -5 38
-8 85 -8 74 0 85 2 85 18 0 9 -6 82 -14 162 -8 80 -19 215 -25 300 -18 258
-19 260 -47 260 -16 0 -24 -6 -24 -17z"/>
<path d="M1080 1111 l0 -291 60 0 c66 0 113 18 130 50 15 28 24 255 15 373
-10 134 -23 150 -129 155 l-76 4 0 -291z"/>
<path d="M3785 1390 c11 -5 41 -9 66 -9 74 -1 83 -14 90 -128 4 -54 8 -294 9
-533 1 -239 6 -421 10 -405 4 17 8 267 9 558 l1 527 -102 -1 c-67 0 -96 -3
-83 -9z"/>
<path d="M4164 1369 c3 -17 7 -255 8 -528 l2 -496 6 502 c6 566 0 528 86 542
47 8 46 9 -30 10 l-78 1 6 -31z"/>
<path d="M2091 1040 c15 -4 53 -4 85 0 58 7 58 7 -26 8 -57 0 -76 -2 -59 -8z"/>
<path d="M2853 598 c4 -95 7 -229 7 -297 0 -68 2 -122 4 -120 2 2 9 92 16 199
11 194 24 295 39 304 4 3 22 8 39 11 25 4 34 1 43 -16 14 -26 25 -115 34 -269
4 -63 11 -142 15 -175 7 -58 8 -57 9 35 0 52 4 186 8 298 l6 202 -113 0 -113
0 6 -172z"/>
<path d="M2123 663 c20 -2 54 -2 75 0 20 2 3 4 -38 4 -41 0 -58 -2 -37 -4z"/>
<path d="M1080 389 c0 -139 3 -250 6 -247 3 4 14 39 24 79 33 128 65 127 130
-6 21 -44 39 -71 39 -60 0 11 -26 124 -57 250 l-58 230 -42 3 -42 3 0 -252z"/>
<path d="M307 428 c-4 -29 -9 -98 -12 -153 -4 -76 -2 -92 5 -65 47 164 55 180
101 180 68 0 83 -19 118 -149 35 -125 37 -111 18 104 l-12 130 -106 3 -106 3
-6 -53z"/>
<path d="M158 113 c18 -2 45 -2 60 0 15 2 0 4 -33 4 -33 0 -45 -2 -27 -4z"/>
<path d="M617 113 c24 -2 62 -2 86 0 23 2 4 4 -43 4 -47 0 -66 -2 -43 -4z"/>
<path d="M927 108 c28 -7 57 -7 90 0 46 9 44 10 -42 10 -81 0 -86 -1 -48 -10z"/>
<path d="M1348 113 c23 -2 61 -2 85 0 23 2 4 4 -43 4 -47 0 -66 -2 -42 -4z"/>
<path d="M2733 113 c15 -2 37 -2 50 0 12 2 0 4 -28 4 -27 0 -38 -2 -22 -4z"/>
<path d="M3138 113 c18 -2 45 -2 60 0 15 2 0 4 -33 4 -33 0 -45 -2 -27 -4z"/>
<path d="M3493 113 c15 -2 39 -2 55 0 15 2 2 4 -28 4 -30 0 -43 -2 -27 -4z"/>
</g>
</svg>
